<mxfile host="app.diagrams.net" modified="2020-03-30T07:38:57.659Z" agent="5.0 (Windows NT 10.0; Win64; x64) AppleWebKit/537.36 (KHTML, like Gecko) Chrome/80.0.3987.149 Safari/537.36" etag="rTY7nq4Wecjap2eXgqSs" version="12.9.4" type="github">
  <diagram id="aXW2w3-RhhcukATJThJz" name="Page-1">
    <mxGraphModel dx="1038" dy="580" grid="1" gridSize="10" guides="1" tooltips="1" connect="1" arrows="1" fold="1" page="1" pageScale="1" pageWidth="827" pageHeight="1169" math="0" shadow="0">
      <root>
        <mxCell id="0" />
        <mxCell id="1" parent="0" />
        <mxCell id="LlGmlZTxdirhtF3lN42s-1" value="" style="rounded=0;whiteSpace=wrap;html=1;" vertex="1" parent="1">
          <mxGeometry y="60" width="120" height="190" as="geometry" />
        </mxCell>
        <mxCell id="LlGmlZTxdirhtF3lN42s-2" value="Products" style="text;html=1;strokeColor=none;fillColor=none;align=center;verticalAlign=middle;whiteSpace=wrap;rounded=0;" vertex="1" parent="1">
          <mxGeometry x="30" y="130" width="60" height="20" as="geometry" />
        </mxCell>
        <mxCell id="LlGmlZTxdirhtF3lN42s-4" value="" style="rounded=0;whiteSpace=wrap;html=1;direction=south;" vertex="1" parent="1">
          <mxGeometry x="707" y="60" width="120" height="190" as="geometry" />
        </mxCell>
        <mxCell id="LlGmlZTxdirhtF3lN42s-7" value="Catégories" style="text;html=1;strokeColor=none;fillColor=none;align=center;verticalAlign=middle;whiteSpace=wrap;rounded=0;" vertex="1" parent="1">
          <mxGeometry x="750" y="130" width="40" height="20" as="geometry" />
        </mxCell>
        <mxCell id="LlGmlZTxdirhtF3lN42s-8" value="" style="endArrow=none;html=1;entryX=0.526;entryY=0.975;entryDx=0;entryDy=0;entryPerimeter=0;" edge="1" parent="1" target="LlGmlZTxdirhtF3lN42s-4">
          <mxGeometry width="50" height="50" relative="1" as="geometry">
            <mxPoint x="124" y="160" as="sourcePoint" />
            <mxPoint x="700" y="160" as="targetPoint" />
            <Array as="points" />
          </mxGeometry>
        </mxCell>
        <mxCell id="LlGmlZTxdirhtF3lN42s-9" value="" style="ellipse;whiteSpace=wrap;html=1;" vertex="1" parent="1">
          <mxGeometry x="350" y="110" width="120" height="80" as="geometry" />
        </mxCell>
        <mxCell id="LlGmlZTxdirhtF3lN42s-10" value="Possède" style="text;html=1;strokeColor=none;fillColor=none;align=center;verticalAlign=middle;whiteSpace=wrap;rounded=0;" vertex="1" parent="1">
          <mxGeometry x="390" y="140" width="40" height="30" as="geometry" />
        </mxCell>
        <mxCell id="LlGmlZTxdirhtF3lN42s-11" value="1,n" style="text;html=1;strokeColor=none;fillColor=none;align=center;verticalAlign=middle;whiteSpace=wrap;rounded=0;" vertex="1" parent="1">
          <mxGeometry x="140" y="130" width="40" height="20" as="geometry" />
        </mxCell>
        <mxCell id="LlGmlZTxdirhtF3lN42s-12" value="1,n" style="text;html=1;strokeColor=none;fillColor=none;align=center;verticalAlign=middle;whiteSpace=wrap;rounded=0;" vertex="1" parent="1">
          <mxGeometry x="650" y="130" width="40" height="20" as="geometry" />
        </mxCell>
      </root>
    </mxGraphModel>
  </diagram>
</mxfile>
